<svg xmlns="http://www.w3.org/2000/svg" viewBox="0 0 100 100"><path fill="#FFF" d="M.723.722v98.62h98.62V.723H.724z"/><path fill="#F6EC36" d="M.723.722v98.62h98.62V.723H.724zm92.118 40.82c0 3.253-1.082 6.865-2.166 9.394-3.613 10.476-7.586 16.617-16.98 16.617-2.89 0-7.585-.722-9.39-5.78l-.363-1.083-.72 1.083c-2.89 3.613-7.226 5.78-11.922 5.78-3.613 0-6.503-1.083-8.31-3.612l-.36-.722-.362.723c-1.806 2.168-5.418 3.252-9.392 3.252-3.25 0-5.78-1.084-7.586-2.89l-.362-.36-.36.36c-2.168 2.168-5.058 2.89-9.032 2.89-4.696 0-7.586-2.89-7.948-7.225 0-6.864 6.503-20.952 9.032-25.287 1.445-2.168 3.973-3.613 6.863-3.613 2.17 0 3.614.362 4.698 1.445.722.723 1.083 1.445 1.083 3.252v2.167l1.085-1.805c2.89-4.696 7.586-5.42 12.283-5.42 3.25 0 6.14 1.085 7.225 2.89l.722 1.085.723-.36c2.528-2.17 5.78-3.253 9.753-3.253 3.975 0 7.226 1.084 9.033 2.89.36.362.722.723 1.083 1.445l.362 1.084.722-.722c2.53-3.252 6.14-4.697 10.476-4.697 3.613 0 6.142 1.084 7.948 2.89 1.806 2.168 2.167 5.42 2.167 7.586z"/><path fill="#D01012" d="M.723.722v98.62h98.62V.723H.724zM95.73 45.517c-.36 3.613-2.89 10.115-4.334 13.005-3.612 7.225-7.947 12.644-16.978 12.644-4.697 0-8.67-1.445-10.838-4.335-3.25 2.89-7.586 4.336-11.92 4.336-3.614 0-6.504-1.084-8.67-2.89-2.53 1.806-6.142 2.89-9.755 2.89-3.25 0-6.14-.723-8.31-2.53-2.527 1.807-5.78 2.53-9.752 2.53-6.503 0-10.838-4.335-10.838-10.115 0-7.947 6.503-22.035 9.393-27.093 2.167-3.973 5.78-5.78 10.115-5.78 4.696 0 6.502 1.445 7.225 2.89 3.612-3.25 8.308-3.25 11.92-3.25 3.613 0 6.142 1.083 8.31 2.528 2.89-1.806 6.14-2.53 9.753-2.53 4.698 0 8.31 1.085 10.84 3.614 2.89-2.53 6.5-3.614 10.836-3.614 5.42 0 9.032 1.806 11.2 5.058 2.89 3.973 2.167 8.308 1.805 12.643z"/><path d="M0 0v100.066h100.066V0H0zm98.62 1.445V98.62H1.446V1.446H98.62z"/><path d="M95.01 29.984v-.723h.36c.36 0 .36 0 .36.362 0 0 0 .362-.36.362h-.36zm1.805 1.445l-.36-.363c-.362-.36-.362-.36-.362-.722.36 0 .722-.36.722-.723 0-.36-.36-.722-.722-.722H95.01v2.53h.36v-1.085h.36l.363.36.36.362.362.362zm-1.445-3.253c1.084 0 1.806.723 1.806 1.807 0 1.083-.722 1.806-1.806 1.806s-1.806-.723-1.806-1.806.722-1.807 1.806-1.807zm0-.36c-1.445 0-2.53 1.083-2.53 2.528s1.085 2.53 2.53 2.53c1.445 0 2.53-1.085 2.53-2.53 0-1.445-1.085-2.53-2.53-2.53zM82.365 30.345c-5.057 0-8.67 2.167-11.2 5.057-.36-.722-.72-1.083-1.082-1.806-1.807-2.167-5.058-3.25-9.393-3.25-4.335 0-7.586 1.444-10.115 3.25-1.084-2.167-4.335-3.25-7.947-3.25-4.697 0-9.754.72-13.005 5.418 0-1.807-.362-2.53-1.084-3.613-1.085-1.444-2.89-1.805-5.06-1.805-3.61 0-6.14 1.445-7.946 4.696-2.89 4.336-9.393 18.786-9.03 25.65 0 4.335 3.25 7.586 8.307 7.947 4.336 0 7.588-1.084 9.755-3.25 1.806 1.805 4.696 3.25 8.31 3.25 3.973 0 7.585-1.084 10.114-3.612 1.805 2.528 5.056 3.612 8.67 3.612 5.056 0 9.39-2.53 12.28-6.14 1.446 4.334 5.78 6.14 10.116 6.14 9.754 0 14.09-6.502 17.34-17.34.723-2.53 1.807-6.502 2.168-9.754.36-5.418-2.168-11.198-11.2-11.198zm-64.302 26.37c5.057-.722 6.14 1.085 6.14 2.53-.36 5.057-5.057 6.14-9.03 6.14-2.89 0-5.42-1.444-5.42-4.695 0-5.78 5.78-19.508 8.67-23.843 1.446-2.167 2.89-3.25 5.42-3.25 2.528 0 2.89 1.083 2.89 2.89 0 3.61-6.503 15.533-8.67 20.23zM34.32 52.02c-.362.722-1.085 2.89-1.446 4.696 1.806-.36 2.89-.723 5.057-.723 2.53 0 3.975 1.084 3.975 2.89 0 4.697-5.42 6.142-9.03 6.142-3.975.36-7.587-1.807-7.587-6.142 0-5.057 2.89-13.005 5.418-18.423 3.252-6.503 6.503-7.225 12.283-7.225 2.528 0 5.418 1.084 5.418 3.612 0 3.25-2.89 4.696-5.42 4.696h-3.973s-1.084 1.445-1.806 3.974c5.056-.722 7.224.36 6.5 3.25-1.444 3.975-5.056 3.975-9.39 3.253zm25.286-12.283c-1.445 0-2.167.723-2.89 1.806C55.27 43.71 52.02 52.02 51.66 55.27c-.362 2.53.72 2.89 1.805 2.89 1.806 0 3.613-1.805 4.335-5.057 0 0-3.25 0-2.53-3.25 1.085-2.89 2.53-3.613 5.42-3.613 5.78-.362 5.058 3.973 4.696 6.14-1.445 7.226-6.502 13.006-13.727 13.006-5.06 0-7.95-2.89-7.95-7.948 0-3.612 1.808-9.392 3.253-12.643 2.89-6.864 6.14-11.92 14.088-11.92 4.698 0 8.67 1.805 7.95 6.14-.362 3.25-2.17 5.418-5.06 5.418-.72 0-4.334 0-3.25-3.25.36-.723.723-1.446-1.084-1.446zm30.345 5.78c-.72 4.335-2.89 9.393-4.695 13.005-3.25 6.14-7.586 6.864-11.2 6.864-3.61 0-7.585-1.445-7.585-6.864 0-3.974 1.806-9.754 3.25-13.366 2.53-6.502 5.06-12.282 13.368-11.92 9.392.36 7.586 8.67 6.863 12.28zm-7.946-5.78c-.723 0-1.445 0-2.168 1.084-1.445 1.807-5.78 13.367-5.78 15.896 0 .722.362 1.445 1.445 1.445 1.085 0 1.808-.722 2.53-1.805 1.445-2.168 5.058-12.644 5.058-15.173 0-.36 0-1.445-1.084-1.445z"/></svg>